<?xml version="1.0" encoding="UTF-8"?>
<svg width="1200pt" height="1200pt" version="1.1" viewBox="0 0 1200 1200" xmlns="http://www.w3.org/2000/svg">
 <path d="m153 681.5h22c4.1875-0.10938 8.2461 1.4766 11.254 4.3906 3.0117 2.9141 4.7188 6.918 4.7461 11.109v318.5c0.027344 23.992 9.5703 46.996 26.535 63.965 16.969 16.965 39.973 26.508 63.965 26.535h637c23.992-0.027344 46.996-9.5703 63.965-26.535 16.965-16.969 26.508-39.973 26.535-63.965v-318.5c0.011719-4.1953 1.7188-8.207 4.7305-11.125s7.0781-4.4961 11.27-4.375h21.949c24.543-0.003906 48.035-9.9688 65.102-27.609 17.062-17.641 26.238-41.453 25.43-65.98-0.8125-24.531-11.539-47.684-29.73-64.16l-447.15-406.65c-16.621-15.039-38.238-23.367-60.652-23.367-22.414 0-44.027 8.3281-60.648 23.367l-446.9 406.55c-18.223 16.453-28.988 39.594-29.836 64.133-0.84375 24.535 8.3047 48.363 25.352 66.031 17.047 17.664 40.535 27.656 65.086 27.688zm409.5 349.5v-215c0-13.398 7.1484-25.777 18.75-32.477 11.602-6.6992 25.898-6.6992 37.5 0 11.602 6.6992 18.75 19.078 18.75 32.477v215zm-420-451.8 446.9-406.3c2.8711-2.5 6.5469-3.875 10.352-3.875s7.4805 1.375 10.352 3.875l447.05 406.55h-0.003906c3.1484 2.8281 5.0078 6.8125 5.1602 11.039 0.15234 4.2266-1.418 8.3359-4.3516 11.383-2.9336 3.0469-6.9766 4.7695-11.207 4.7773h-21.75c-24.059-0.039063-47.152 9.4688-64.215 26.434-17.059 16.969-26.691 40.008-26.785 64.066v318.5c0.14062 4.1523-1.4453 8.1797-4.3867 11.117-2.9375 2.9375-6.9609 4.5234-11.113 4.3828h-206v-215c0-40.191-21.441-77.332-56.25-97.426-34.809-20.098-77.691-20.098-112.5 0-34.809 20.094-56.25 57.234-56.25 97.426v215h-206c-4.1523 0.14062-8.1758-1.4453-11.113-4.3828-2.9414-2.9375-4.5273-6.9648-4.3867-11.117v-318.65c-0.09375-24.059-9.7266-47.102-26.785-64.066-17.062-16.969-40.156-26.473-64.215-26.434h-22c-3.1523 0.066406-6.25-0.86719-8.8438-2.6641-2.5938-1.793-4.5547-4.3594-5.6055-7.3359-1.2461-2.9492-1.5156-6.2188-0.76562-9.332 0.74609-3.1133 2.4688-5.9062 4.9141-7.9688z" fill="#bf78de"/>
</svg>
